<svg width="318" height="66" viewBox="0 0 318 66" fill="none" xmlns="http://www.w3.org/2000/svg">
<rect x="1" y="1" width="316" height="64" rx="32" stroke="white" stroke-width="2"/>
<path d="M75.196 41.264C73.6267 41.264 72.204 40.9267 70.928 40.252C69.6667 39.5627 68.6693 38.6167 67.936 37.414C67.2173 36.1967 66.858 34.8253 66.858 33.3C66.858 31.7747 67.2173 30.4107 67.936 29.208C68.6693 27.9907 69.6667 27.0447 70.928 26.37C72.204 25.6807 73.634 25.336 75.218 25.336C76.5527 25.336 77.7553 25.5707 78.826 26.04C79.9113 26.5093 80.8207 27.184 81.554 28.064L79.266 30.176C78.2247 28.9733 76.934 28.372 75.394 28.372C74.4407 28.372 73.59 28.5847 72.842 29.01C72.094 29.4207 71.5073 30 71.082 30.748C70.6713 31.496 70.466 32.3467 70.466 33.3C70.466 34.2533 70.6713 35.104 71.082 35.852C71.5073 36.6 72.094 37.1867 72.842 37.612C73.59 38.0227 74.4407 38.228 75.394 38.228C76.934 38.228 78.2247 37.6193 79.266 36.402L81.554 38.514C80.8207 39.4087 79.9113 40.0907 78.826 40.56C77.7407 41.0293 76.5307 41.264 75.196 41.264ZM88.9426 41.176C87.6959 41.176 86.5739 40.9193 85.5766 40.406C84.5939 39.878 83.8239 39.152 83.2666 38.228C82.7092 37.304 82.4306 36.2553 82.4306 35.082C82.4306 33.9087 82.7092 32.86 83.2666 31.936C83.8239 31.012 84.5939 30.2933 85.5766 29.78C86.5739 29.252 87.6959 28.988 88.9426 28.988C90.1892 28.988 91.3039 29.252 92.2866 29.78C93.2692 30.2933 94.0392 31.012 94.5966 31.936C95.1539 32.86 95.4326 33.9087 95.4326 35.082C95.4326 36.2553 95.1539 37.304 94.5966 38.228C94.0392 39.152 93.2692 39.878 92.2866 40.406C91.3039 40.9193 90.1892 41.176 88.9426 41.176ZM88.9426 38.36C89.8226 38.36 90.5412 38.0667 91.0986 37.48C91.6706 36.8787 91.9566 36.0793 91.9566 35.082C91.9566 34.0847 91.6706 33.2927 91.0986 32.706C90.5412 32.1047 89.8226 31.804 88.9426 31.804C88.0626 31.804 87.3366 32.1047 86.7646 32.706C86.1926 33.2927 85.9066 34.0847 85.9066 35.082C85.9066 36.0793 86.1926 36.8787 86.7646 37.48C87.3366 38.0667 88.0626 38.36 88.9426 38.36ZM104.921 28.988C106.387 28.988 107.568 29.428 108.463 30.308C109.372 31.188 109.827 32.4933 109.827 34.224V41H106.395V34.752C106.395 33.8133 106.189 33.1167 105.779 32.662C105.368 32.1927 104.774 31.958 103.997 31.958C103.131 31.958 102.442 32.2293 101.929 32.772C101.415 33.3 101.159 34.092 101.159 35.148V41H97.7266V29.164H101.005V30.55C101.459 30.0513 102.024 29.67 102.699 29.406C103.373 29.1273 104.114 28.988 104.921 28.988ZM120.572 40.428C120.234 40.6773 119.816 40.868 119.318 41C118.834 41.1173 118.32 41.176 117.778 41.176C116.37 41.176 115.277 40.8167 114.5 40.098C113.737 39.3793 113.356 38.3233 113.356 36.93V32.068H111.53V29.428H113.356V26.546H116.788V29.428H119.736V32.068H116.788V36.886C116.788 37.3847 116.912 37.7733 117.162 38.052C117.426 38.316 117.792 38.448 118.262 38.448C118.804 38.448 119.266 38.3013 119.648 38.008L120.572 40.428ZM125.776 30.726C126.187 30.154 126.737 29.7213 127.426 29.428C128.13 29.1347 128.937 28.988 129.846 28.988V32.156C129.465 32.1267 129.208 32.112 129.076 32.112C128.093 32.112 127.323 32.3907 126.766 32.948C126.209 33.4907 125.93 34.312 125.93 35.412V41H122.498V29.164H125.776V30.726ZM137.411 41.176C136.165 41.176 135.043 40.9193 134.045 40.406C133.063 39.878 132.293 39.152 131.735 38.228C131.178 37.304 130.899 36.2553 130.899 35.082C130.899 33.9087 131.178 32.86 131.735 31.936C132.293 31.012 133.063 30.2933 134.045 29.78C135.043 29.252 136.165 28.988 137.411 28.988C138.658 28.988 139.773 29.252 140.755 29.78C141.738 30.2933 142.508 31.012 143.065 31.936C143.623 32.86 143.901 33.9087 143.901 35.082C143.901 36.2553 143.623 37.304 143.065 38.228C142.508 39.152 141.738 39.878 140.755 40.406C139.773 40.9193 138.658 41.176 137.411 41.176ZM137.411 38.36C138.291 38.36 139.01 38.0667 139.567 37.48C140.139 36.8787 140.425 36.0793 140.425 35.082C140.425 34.0847 140.139 33.2927 139.567 32.706C139.01 32.1047 138.291 31.804 137.411 31.804C136.531 31.804 135.805 32.1047 135.233 32.706C134.661 33.2927 134.375 34.0847 134.375 35.082C134.375 36.0793 134.661 36.8787 135.233 37.48C135.805 38.0667 136.531 38.36 137.411 38.36ZM146.195 24.676H149.627V41H146.195V24.676ZM171.099 24.676V41H167.821V39.636C166.97 40.6627 165.738 41.176 164.125 41.176C163.01 41.176 161.998 40.9267 161.089 40.428C160.194 39.9293 159.49 39.218 158.977 38.294C158.464 37.37 158.207 36.2993 158.207 35.082C158.207 33.8647 158.464 32.794 158.977 31.87C159.49 30.946 160.194 30.2347 161.089 29.736C161.998 29.2373 163.01 28.988 164.125 28.988C165.636 28.988 166.816 29.4647 167.667 30.418V24.676H171.099ZM164.719 38.36C165.584 38.36 166.303 38.0667 166.875 37.48C167.447 36.8787 167.733 36.0793 167.733 35.082C167.733 34.0847 167.447 33.2927 166.875 32.706C166.303 32.1047 165.584 31.804 164.719 31.804C163.839 31.804 163.113 32.1047 162.541 32.706C161.969 33.2927 161.683 34.0847 161.683 35.082C161.683 36.0793 161.969 36.8787 162.541 37.48C163.113 38.0667 163.839 38.36 164.719 38.36ZM185.869 35.126C185.869 35.17 185.847 35.478 185.803 36.05H176.849C177.011 36.7833 177.392 37.3627 177.993 37.788C178.595 38.2133 179.343 38.426 180.237 38.426C180.853 38.426 181.396 38.338 181.865 38.162C182.349 37.9713 182.797 37.678 183.207 37.282L185.033 39.262C183.919 40.538 182.291 41.176 180.149 41.176C178.815 41.176 177.634 40.9193 176.607 40.406C175.581 39.878 174.789 39.152 174.231 38.228C173.674 37.304 173.395 36.2553 173.395 35.082C173.395 33.9233 173.667 32.882 174.209 31.958C174.767 31.0193 175.522 30.2933 176.475 29.78C177.443 29.252 178.521 28.988 179.709 28.988C180.868 28.988 181.917 29.2373 182.855 29.736C183.794 30.2347 184.527 30.9533 185.055 31.892C185.598 32.816 185.869 33.894 185.869 35.126ZM179.731 31.584C178.954 31.584 178.301 31.804 177.773 32.244C177.245 32.684 176.923 33.2853 176.805 34.048H182.635C182.518 33.3 182.195 32.706 181.667 32.266C181.139 31.8113 180.494 31.584 179.731 31.584ZM209.543 28.988C211.024 28.988 212.197 29.428 213.063 30.308C213.943 31.1733 214.383 32.4787 214.383 34.224V41H210.951V34.752C210.951 33.8133 210.753 33.1167 210.357 32.662C209.975 32.1927 209.425 31.958 208.707 31.958C207.9 31.958 207.262 32.222 206.793 32.75C206.323 33.2633 206.089 34.0333 206.089 35.06V41H202.657V34.752C202.657 32.8893 201.909 31.958 200.413 31.958C199.621 31.958 198.99 32.222 198.521 32.75C198.051 33.2633 197.817 34.0333 197.817 35.06V41H194.385V29.164H197.663V30.528C198.103 30.0293 198.638 29.648 199.269 29.384C199.914 29.12 200.618 28.988 201.381 28.988C202.217 28.988 202.972 29.1567 203.647 29.494C204.321 29.8167 204.864 30.2933 205.275 30.924C205.759 30.308 206.367 29.8313 207.101 29.494C207.849 29.1567 208.663 28.988 209.543 28.988ZM229.182 35.126C229.182 35.17 229.16 35.478 229.116 36.05H220.162C220.323 36.7833 220.705 37.3627 221.306 37.788C221.907 38.2133 222.655 38.426 223.55 38.426C224.166 38.426 224.709 38.338 225.178 38.162C225.662 37.9713 226.109 37.678 226.52 37.282L228.346 39.262C227.231 40.538 225.603 41.176 223.462 41.176C222.127 41.176 220.947 40.9193 219.92 40.406C218.893 39.878 218.101 39.152 217.544 38.228C216.987 37.304 216.708 36.2553 216.708 35.082C216.708 33.9233 216.979 32.882 217.522 31.958C218.079 31.0193 218.835 30.2933 219.788 29.78C220.756 29.252 221.834 28.988 223.022 28.988C224.181 28.988 225.229 29.2373 226.168 29.736C227.107 30.2347 227.84 30.9533 228.368 31.892C228.911 32.816 229.182 33.894 229.182 35.126ZM223.044 31.584C222.267 31.584 221.614 31.804 221.086 32.244C220.558 32.684 220.235 33.2853 220.118 34.048H225.948C225.831 33.3 225.508 32.706 224.98 32.266C224.452 31.8113 223.807 31.584 223.044 31.584ZM235.449 41.176C234.466 41.176 233.505 41.0587 232.567 40.824C231.628 40.5747 230.88 40.2667 230.323 39.9L231.467 37.436C231.995 37.7733 232.633 38.052 233.381 38.272C234.129 38.4773 234.862 38.58 235.581 38.58C237.033 38.58 237.759 38.2207 237.759 37.502C237.759 37.1647 237.561 36.9227 237.165 36.776C236.769 36.6293 236.16 36.5047 235.339 36.402C234.371 36.2553 233.571 36.0867 232.941 35.896C232.31 35.7053 231.76 35.368 231.291 34.884C230.836 34.4 230.609 33.7107 230.609 32.816C230.609 32.068 230.821 31.408 231.247 30.836C231.687 30.2493 232.317 29.7947 233.139 29.472C233.975 29.1493 234.957 28.988 236.087 28.988C236.923 28.988 237.751 29.0833 238.573 29.274C239.409 29.45 240.098 29.6993 240.641 30.022L239.497 32.464C238.455 31.8773 237.319 31.584 236.087 31.584C235.353 31.584 234.803 31.6867 234.437 31.892C234.07 32.0973 233.887 32.3613 233.887 32.684C233.887 33.0507 234.085 33.3073 234.481 33.454C234.877 33.6007 235.507 33.74 236.373 33.872C237.341 34.0333 238.133 34.2093 238.749 34.4C239.365 34.576 239.9 34.906 240.355 35.39C240.809 35.874 241.037 36.5487 241.037 37.414C241.037 38.1473 240.817 38.8 240.377 39.372C239.937 39.944 239.291 40.3913 238.441 40.714C237.605 41.022 236.607 41.176 235.449 41.176ZM247.928 28.988C249.762 28.988 251.17 29.428 252.152 30.308C253.135 31.1733 253.626 32.486 253.626 34.246V41H250.414V39.526C249.769 40.626 248.566 41.176 246.806 41.176C245.897 41.176 245.105 41.022 244.43 40.714C243.77 40.406 243.264 39.9807 242.912 39.438C242.56 38.8953 242.384 38.2793 242.384 37.59C242.384 36.49 242.795 35.6247 243.616 34.994C244.452 34.3633 245.736 34.048 247.466 34.048H250.194C250.194 33.3 249.967 32.728 249.512 32.332C249.058 31.9213 248.376 31.716 247.466 31.716C246.836 31.716 246.212 31.8187 245.596 32.024C244.995 32.2147 244.482 32.4787 244.056 32.816L242.824 30.418C243.47 29.9633 244.24 29.6113 245.134 29.362C246.044 29.1127 246.975 28.988 247.928 28.988ZM247.664 38.866C248.251 38.866 248.772 38.734 249.226 38.47C249.681 38.1913 250.004 37.788 250.194 37.26V36.05H247.84C246.432 36.05 245.728 36.512 245.728 37.436C245.728 37.876 245.897 38.228 246.234 38.492C246.586 38.7413 247.063 38.866 247.664 38.866ZM268.917 24.676V41H265.639V39.636C264.789 40.6627 263.557 41.176 261.943 41.176C260.829 41.176 259.817 40.9267 258.907 40.428C258.013 39.9293 257.309 39.218 256.795 38.294C256.282 37.37 256.025 36.2993 256.025 35.082C256.025 33.8647 256.282 32.794 256.795 31.87C257.309 30.946 258.013 30.2347 258.907 29.736C259.817 29.2373 260.829 28.988 261.943 28.988C263.454 28.988 264.635 29.4647 265.485 30.418V24.676H268.917ZM262.537 38.36C263.403 38.36 264.121 38.0667 264.693 37.48C265.265 36.8787 265.551 36.0793 265.551 35.082C265.551 34.0847 265.265 33.2927 264.693 32.706C264.121 32.1047 263.403 31.804 262.537 31.804C261.657 31.804 260.931 32.1047 260.359 32.706C259.787 33.2927 259.501 34.0847 259.501 35.082C259.501 36.0793 259.787 36.8787 260.359 37.48C260.931 38.0667 261.657 38.36 262.537 38.36ZM276.868 28.988C278.701 28.988 280.109 29.428 281.092 30.308C282.074 31.1733 282.566 32.486 282.566 34.246V41H279.354V39.526C278.708 40.626 277.506 41.176 275.746 41.176C274.836 41.176 274.044 41.022 273.37 40.714C272.71 40.406 272.204 39.9807 271.852 39.438C271.5 38.8953 271.324 38.2793 271.324 37.59C271.324 36.49 271.734 35.6247 272.556 34.994C273.392 34.3633 274.675 34.048 276.406 34.048H279.134C279.134 33.3 278.906 32.728 278.452 32.332C277.997 31.9213 277.315 31.716 276.406 31.716C275.775 31.716 275.152 31.8187 274.536 32.024C273.934 32.2147 273.421 32.4787 272.996 32.816L271.764 30.418C272.409 29.9633 273.179 29.6113 274.074 29.362C274.983 29.1127 275.914 28.988 276.868 28.988ZM276.604 38.866C277.19 38.866 277.711 38.734 278.166 38.47C278.62 38.1913 278.943 37.788 279.134 37.26V36.05H276.78C275.372 36.05 274.668 36.512 274.668 37.436C274.668 37.876 274.836 38.228 275.174 38.492C275.526 38.7413 276.002 38.866 276.604 38.866ZM289.654 41.176C288.671 41.176 287.711 41.0587 286.772 40.824C285.833 40.5747 285.085 40.2667 284.528 39.9L285.672 37.436C286.2 37.7733 286.838 38.052 287.586 38.272C288.334 38.4773 289.067 38.58 289.786 38.58C291.238 38.58 291.964 38.2207 291.964 37.502C291.964 37.1647 291.766 36.9227 291.37 36.776C290.974 36.6293 290.365 36.5047 289.544 36.402C288.576 36.2553 287.777 36.0867 287.146 35.896C286.515 35.7053 285.965 35.368 285.496 34.884C285.041 34.4 284.814 33.7107 284.814 32.816C284.814 32.068 285.027 31.408 285.452 30.836C285.892 30.2493 286.523 29.7947 287.344 29.472C288.18 29.1493 289.163 28.988 290.292 28.988C291.128 28.988 291.957 29.0833 292.778 29.274C293.614 29.45 294.303 29.6993 294.846 30.022L293.702 32.464C292.661 31.8773 291.524 31.584 290.292 31.584C289.559 31.584 289.009 31.6867 288.642 31.892C288.275 32.0973 288.092 32.3613 288.092 32.684C288.092 33.0507 288.29 33.3073 288.686 33.454C289.082 33.6007 289.713 33.74 290.578 33.872C291.546 34.0333 292.338 34.2093 292.954 34.4C293.57 34.576 294.105 34.906 294.56 35.39C295.015 35.874 295.242 36.5487 295.242 37.414C295.242 38.1473 295.022 38.8 294.582 39.372C294.142 39.944 293.497 40.3913 292.646 40.714C291.81 41.022 290.813 41.176 289.654 41.176Z" fill="white"/>
<circle cx="33" cy="33" r="23" fill="white"/>
<path d="M33.4259 16.8148V49.6111" stroke="#224388" stroke-width="4" stroke-linecap="round" stroke-linejoin="round"/>
<path d="M40.8796 22.7778H29.6991C28.3153 22.7778 26.9882 23.3275 26.0097 24.306C25.0312 25.2845 24.4815 26.6116 24.4815 27.9954C24.4815 29.3792 25.0312 30.7063 26.0097 31.6848C26.9882 32.6632 28.3153 33.213 29.6991 33.213H37.1528C38.5366 33.213 39.8637 33.7627 40.8422 34.7412C41.8207 35.7196 42.3704 37.0468 42.3704 38.4305C42.3704 39.8143 41.8207 41.1415 40.8422 42.1199C39.8637 43.0984 38.5366 43.6481 37.1528 43.6481H24.4815" stroke="#224388" stroke-width="4" stroke-linecap="round" stroke-linejoin="round"/>
</svg>
