<svg width="46" height="46" viewBox="0 0 46 46" fill="none" xmlns="http://www.w3.org/2000/svg">
<circle cx="23" cy="23" r="23" fill="white"/>
<path d="M23.4259 6.8148V39.6111" stroke="#224388" stroke-width="4" stroke-linecap="round" stroke-linejoin="round"/>
<path d="M30.8796 12.7778H19.6991C18.3153 12.7778 16.9882 13.3275 16.0097 14.306C15.0312 15.2845 14.4815 16.6116 14.4815 17.9954C14.4815 19.3792 15.0312 20.7063 16.0097 21.6848C16.9882 22.6632 18.3153 23.213 19.6991 23.213H27.1528C28.5366 23.213 29.8637 23.7627 30.8422 24.7412C31.8207 25.7196 32.3704 27.0468 32.3704 28.4305C32.3704 29.8143 31.8207 31.1415 30.8422 32.1199C29.8637 33.0984 28.5366 33.6481 27.1528 33.6481H14.4815" stroke="#224388" stroke-width="4" stroke-linecap="round" stroke-linejoin="round"/>
</svg>
